# xmcd
#
# Track frame offsets:
#	150
#	16242
#	26868
#	40537
#	49544
#	60202
#	72269
#	85320
#	95349
#	105712
#	116348
#	129101
#	141339
#	153218
#	164852
#	176657
#	186197
#	195261
#	207563
#	220300
#	231797
#	242095
#	263877
#	332969
#
# Disc length: 4440 seconds
#
# Revision: 0
# Processed by: cddbd v1.5.1PL2 Copyright (c) Steve Scherf et al.
# Submitted via: dBpowerAMP V4.0
#
DISCID=4e115618
DTITLE=Divers - S' bescht Ländler Album wo's git
DYEAR=2005
DGENRE=Folklore
TTITLE0=Carlo Brunner - Metzger's Märtel
TTITLE1=Hans Dörig - Im Pöstli z Appezöll
TTITLE2=Ernst Jakober - Im Örgelihuus
TTITLE3=Hugo Bigi - Schwyzer Schottisch
TTITLE4=Toni Nauer - Bi's Jägers Hannes
TTITLE5=Johann Fuchs - Ja, du besch ja nur es Babeli
TTITLE6=Sepp Bucheli - Oski's Geburtstag
TTITLE7=Edwin Bär - Purechilbi
TTITLE8=René Wicky - Schönegg Marsch
TTITLE9=Franz Gisler - Kleine Patrizia
TTITLE10=Kaspar Gander - Gluck Gluck Schottisch
TTITLE11=Kasi Geisser, Walter Wild - Xandi Schweizergruss
TTITLE12=Walter Grob - S Toggeburg ab
TTITLE13=Kasi Geisser - Die ruhigen Weiber in der Waschküche
TTITLE14=Jakob Buser sen. - Köbi im Tessin
TTITLE15=Hans Frey - Mit em Rex is Tessin
TTITLE16=Toni Bürgler - Gyrs Wunsch
TTITLE17=Willi Valotti - Rinaldo
TTITLE18=Ueli Mooser - Malojawind
TTITLE19=Walter Wild - Jurafahrt
TTITLE20=Hans Muff - Schinke mit Ei
TTITLE21=z' Entdecke
TTITLE22=DATA
TTITLE23=Markus Beeler - Horwer Schnägg
EXTD=
EXTT0=
EXTT1=
EXTT2=
EXTT3=
EXTT4=
EXTT5=
EXTT6=
EXTT7=
EXTT8=
EXTT9=
EXTT10=
EXTT11=
EXTT12=
EXTT13=
EXTT14=
EXTT15=
EXTT16=
EXTT17=
EXTT18=
EXTT19=
EXTT20=
EXTT21=
EXTT22=
EXTT23=
PLAYORDER=
